<svg width="61" height="52" viewBox="0 0 61 52" fill="none" xmlns="http://www.w3.org/2000/svg">
<g id="nowa sekcja">
<g id="Body">
<g id="Frame 812582">
<g id="App">
<g id="Section - Project portfolio:scroll-content">
<g id="ProjectCard:margin">
<g id="ProjectCard">
<g id="Definition List:margin">
<g id="Section - CEPD N.V. w liczbach">
<g id="Article">
<g id="Container:margin">
<g id="Container">
<g id="RevenueIcon">
<g id="Group">
<path id="Vector" d="M19.5198 16.8H30.9065L36.1932 7.19997C32.5332 9.19997 29.2798 5.19997 25.2132 7.19997C21.1465 5.19997 17.8932 9.19997 14.2332 7.19997L19.5198 16.8ZM19.5198 16.8C14.2332 22.4 10.1665 30.4 10.1665 38.4C10.1665 44.8 14.6398 47.6 23.5865 47.6" stroke="#F47721" stroke-width="1.5" stroke-linecap="round" stroke-linejoin="round"/>
<path id="Vector_2" d="M30.9067 16.8C34.1601 20 37.0067 24.4 38.6334 28.4" stroke="#F47721" stroke-width="1.5" stroke-linecap="round" stroke-linejoin="round"/>
<path id="Vector_3" d="M20.7397 27.6H29.6864M20.7397 31.2H28.4664M24.8064 22.8C19.5197 22.8 17.8931 26.8 17.8931 30.4C17.8931 34 19.9264 38 24.8064 38" stroke="#F47721" stroke-width="1.5" stroke-linecap="round" stroke-linejoin="round"/>
<path id="Vector_4" d="M40.2598 43.2H51.2398V47.6H40.2598V43.2ZM42.2931 38.4H53.2731V43.2H42.2931V38.4ZM41.0731 33.2H51.6464V38.4H41.0731V33.2Z" stroke="#B9B9B9" stroke-width="1.5" stroke-linecap="round" stroke-linejoin="round"/>
<path id="Vector_5" d="M47.173 32V10.4M42.6997 15.6L47.173 9.19995L51.6464 15.6" stroke="#B9B9B9" stroke-width="1.5" stroke-linecap="round" stroke-linejoin="round"/>
</g>
</g>
</g>
</g>
</g>
</g>
</g>
</g>
</g>
</g>
</g>
</g>
</g>
</g>
</svg>
